<?xml version="1.0" encoding="iso-8859-1"?>
<!-- Generator: Adobe Illustrator 19.0.0, SVG Export Plug-In . SVG Version: 6.00 Build 0)  -->
<svg version="1.1" id="Layer_1" xmlns="http://www.w3.org/2000/svg" xmlns:xlink="http://www.w3.org/1999/xlink" x="0px" y="0px"
	 viewBox="0 0 512 512" style="enable-background:new 0 0 512 512;" xml:space="preserve">
<path style="fill:#DD539C;" d="M505.842,130.44L443.7,68.299L381.559,6.158c-9.099-9.101-24.973-7.982-35.449,2.495L239.856,114.905
	l32.955,32.955l45.663,45.665l45.665,45.661l32.955,32.955L503.35,165.889C513.827,155.412,514.944,139.539,505.842,130.44z"/>
<path style="fill:#EFC377;" d="M85.444,426.555L6.828,347.934c-4.373,4.373-6.825,10.295-6.828,16.48l0.003,55.312v68.969
	c0,6.438,2.61,12.262,6.825,16.478c4.218,4.215,10.044,6.825,16.478,6.825h68.966l55.314,0.002c6.182,0,12.11-2.458,16.478-6.825
	L85.444,426.555z"/>
<polygon style="fill:#F4D944;" points="364.141,239.189 318.475,193.525 272.812,147.863 239.858,114.905 6.828,347.934 
	85.444,426.555 164.064,505.175 397.094,272.141 "/>
<path style="fill:#ECB555;" d="M0.003,488.693c0,6.439,2.61,12.262,6.825,16.478l78.617-78.617L6.828,347.934
	c-4.373,4.373-6.825,10.295-6.828,16.48l0.003,55.312V488.693z"/>
<polygon style="fill:#F1CC30;" points="318.475,193.525 272.813,147.863 239.858,114.905 6.828,347.934 85.444,426.555 "/>
<path style="fill:#DB348A;" d="M318.475,193.525L443.7,68.299L381.559,6.158c-9.099-9.101-24.973-7.982-35.449,2.493
	L239.856,114.905l32.955,32.955L318.475,193.525z"/>
<g>
</g>
<g>
</g>
<g>
</g>
<g>
</g>
<g>
</g>
<g>
</g>
<g>
</g>
<g>
</g>
<g>
</g>
<g>
</g>
<g>
</g>
<g>
</g>
<g>
</g>
<g>
</g>
<g>
</g>
</svg>
