<svg xmlns="http://www.w3.org/2000/svg" width="48.001" height="48.001" viewBox="0 0 48.001 48.001">
  <g>
    <path d="M32.726,0h-32A.728.728,0,0,0,0,.728V47.274A.728.728,0,0,0,.727,48h32a.729.729,0,0,0,.728-.727V.728A.728.728,0,0,0,32.726,0ZM32,46.545H1.455V11.152H32ZM32,9.7H1.455V1.455H32Z" fill="#1a171b"/>
    <path d="M27.877,6.305a.728.728,0,0,0,.514-1.243.742.742,0,0,0-1.028,0,.732.732,0,0,0-.213.515.727.727,0,0,0,.727.728Z" fill="#1a171b"/>
    <path d="M22.864,6.305a.728.728,0,0,0,0-1.456.728.728,0,0,0,0,1.456Z" fill="#1a171b"/>
    <path d="M17.86,6.305a.727.727,0,0,0,.727-.728.73.73,0,0,0-.213-.515.752.752,0,0,0-1.028,0,.728.728,0,0,0-.213.515.746.746,0,0,0,.213.515A.728.728,0,0,0,17.86,6.305Z" fill="#1a171b"/>
    <path d="M22.763,16.971h5.115a.728.728,0,0,0,0-1.456H22.763a.728.728,0,1,0,0,1.456Z" fill="#1a171b"/>
    <path d="M11.4,16.971h7.487a.728.728,0,1,0,0-1.456H11.4a.728.728,0,1,0,0,1.456Z" fill="#1a171b"/>
    <path d="M5.577,16.971H7.516a.728.728,0,0,0,0-1.456H5.577a.728.728,0,1,0,0,1.456Z" fill="#1a171b"/>
    <path d="M11.4,23.274H22.868a.728.728,0,1,0,0-1.456H11.4a.728.728,0,1,0,0,1.456Z" fill="#1a171b"/>
    <path d="M5.577,23.274H7.516a.728.728,0,0,0,0-1.456H5.577a.728.728,0,1,0,0,1.456Z" fill="#1a171b"/>
    <path d="M27.878,28.122H21.011a.728.728,0,1,0,0,1.456h6.867a.728.728,0,0,0,0-1.456Z" fill="#1a171b"/>
    <path d="M11.4,29.577h5.736a.728.728,0,1,0,0-1.456H11.4a.728.728,0,1,0,0,1.456Z" fill="#1a171b"/>
    <path d="M5.577,29.577H7.516a.728.728,0,0,0,0-1.456H5.577a.728.728,0,1,0,0,1.456Z" fill="#1a171b"/>
    <path d="M27.878,34.424H23.516a.728.728,0,1,0,0,1.456h4.362a.728.728,0,0,0,0-1.456Z" fill="#1a171b"/>
    <path d="M11.4,35.879h8.241a.728.728,0,1,0,0-1.456H11.4a.728.728,0,1,0,0,1.456Z" fill="#1a171b"/>
    <path d="M5.577,35.879H7.516a.728.728,0,0,0,0-1.456H5.577a.728.728,0,1,0,0,1.456Z" fill="#1a171b"/>
    <path d="M21.094,40.727H16.58a.728.728,0,1,0,0,1.456h4.514a.728.728,0,0,0,0-1.456Z" fill="#1a171b"/>
    <path d="M5.577,42.182H12.7a.728.728,0,0,0,0-1.456H5.577a.728.728,0,1,0,0,1.456Z" fill="#1a171b"/>
    <path d="M43.608,4.789l-.845-.436V1.216a.727.727,0,0,0-.41-.654L41.825.306a3.089,3.089,0,0,0-2.681,0l-.528.256a.725.725,0,0,0-.41.654V4.352l-.964.5a.729.729,0,0,0-.395.646V39.367a1.313,1.313,0,0,0,.046.252l2.909,7.9a.727.727,0,0,0,1.366,0l2.908-7.9a1.922,1.922,0,0,0,.045-.262h0V6.3A2.784,2.784,0,0,1,46.545,8.86V21.7A.728.728,0,0,0,48,21.7V8.86A4.342,4.342,0,0,0,43.608,4.789ZM39.66,1.672l.118-.057a1.628,1.628,0,0,1,1.413,0l.117.057V3.688a3.074,3.074,0,0,0-1.648,0Zm.825,43.5-2.006-5.445,1.262-.652a1.623,1.623,0,0,1,1.486,0h0l1.261.65Zm2.181-6.993-.771-.4a3.084,3.084,0,0,0-2.82,0l-.771.4V28.217l1.438-.742a1.623,1.623,0,0,1,1.486,0l1.438.742v9.957Zm0-11.593-.771-.4a3.074,3.074,0,0,0-2.821,0l-.771.4V5.94L39.741,5.2a1.629,1.629,0,0,1,1.487,0l1.438.741V26.581Z" fill="#1a171b"/>
  </g>
</svg>
