<?xml version="1.0" encoding="UTF-8"?>
<!DOCTYPE svg PUBLIC "-//W3C//DTD SVG 1.1//EN" "http://www.w3.org/Graphics/SVG/1.1/DTD/svg11.dtd">
<!-- Creator: CorelDRAW -->
<svg xmlns="http://www.w3.org/2000/svg" xml:space="preserve" width="2048px" height="2048px" style="shape-rendering:geometricPrecision; text-rendering:geometricPrecision; image-rendering:optimizeQuality; fill-rule:evenodd; clip-rule:evenodd"
viewBox="0 0 2048 2048"
 xmlns:xlink="http://www.w3.org/1999/xlink">
 <defs>
  <style type="text/css">
   <![CDATA[
    .fil2 {fill:none}
    .fil0 {fill:#212121;fill-rule:nonzero}
    .fil1 {fill:#66BB6A;fill-rule:nonzero}
   ]]>
  </style>
 </defs>
 <g id="Layer_x0020_1">
  <metadata id="CorelCorpID_0Corel-Layer"/>
  <path class="fil0" d="M279.999 255.999l1176 0c6.67914,0 12.7193,2.72953 17.0705,7.13268l311.899 311.899 0.0011811 -0.0011811c4.68662,4.68544 7.02875,10.8284 7.02875,16.9701l0.0011811 0 0 1176c0,13.2543 -10.7457,24 -24,24l-1488 0c-13.2543,0 -24,-10.7457 -24,-24l0 -1488c0,-13.2543 10.7457,-24 24,-24zm1166.06 48l-1142.06 0 0 1440 1440 0 0 -1142.06 -297.938 -297.938z"/>
  <path class="fil0" d="M643.041 255.999l761.917 0c13.2543,0 24,10.7457 24,24l0 327.999c0,13.2543 -10.7457,24 -24,24l-761.917 0c-13.2543,0 -24,-10.7457 -24,-24l0 -327.999c0,-13.2543 10.7457,-24 24,-24zm737.917 48l-713.917 0 0 279.999 713.917 0 0 -279.999z"/>
  <path class="fil0" d="M545.435 903.999l957.131 0c13.2543,0 24,10.7457 24,24l0 840.002c0,13.2543 -10.7457,24 -24,24l-957.131 0c-13.2543,0 -24,-10.7457 -24,-24l0 -840.002c0,-13.2543 10.7457,-24 24,-24zm933.131 48l-909.131 0 0 792.002 909.131 0 0 -792.002z"/>
  <g id="_460811384">
   <polygon id="_460811192" class="fil1" points="704,1148 1344,1148 1344,1100 704,1100 "/>
   <polygon id="_460811696" class="fil1" points="704,1372 1344,1372 1344,1324 704,1324 "/>
   <polygon id="_460811552" class="fil1" points="704,1596 1344,1596 1344,1548 704,1548 "/>
  </g>
  <path class="fil0" d="M1240 279.999c0,-13.2543 -10.7457,-24 -24,-24 -13.2543,0 -24,10.7457 -24,24l0 327.999c0,13.2543 10.7457,24 24,24 13.2543,0 24,-10.7457 24,-24l0 -327.999zm-208.001 327.999c0,13.2543 10.7457,24 24,24 13.2543,0 24,-10.7457 24,-24l0 -327.999c0,-13.2543 -10.7457,-24 -24,-24 -13.2543,0 -24,10.7457 -24,24l0 327.999z"/>
 </g>
 <rect class="fil2" width="2048" height="2048"/>
</svg>
