<?xml version="1.0" encoding="UTF-8"?>
<!DOCTYPE svg PUBLIC "-//W3C//DTD SVG 1.1//EN" "http://www.w3.org/Graphics/SVG/1.1/DTD/svg11.dtd">
<!-- Creator: CorelDRAW -->
<svg xmlns="http://www.w3.org/2000/svg" xml:space="preserve" width="6.82666in" height="6.82666in" style="shape-rendering:geometricPrecision; text-rendering:geometricPrecision; image-rendering:optimizeQuality; fill-rule:evenodd; clip-rule:evenodd"
viewBox="0 0 6.82666 6.82666"
 xmlns:xlink="http://www.w3.org/1999/xlink">
 <defs>
  <style type="text/css">
   <![CDATA[
    .fil1 {fill:none}
    .fil0 {fill:#212121;fill-rule:nonzero}
   ]]>
  </style>
 </defs>
 <g id="Layer_x0020_1">
  <metadata id="CorelCorpID_0Corel-Layer"/>
  <g id="_554262160">
   <path id="_554261512" class="fil0" d="M4.76706 0.982114l1.15219 1.24472c0.0189606,0.0204882 0.0327717,0.0433504 0.0415118,0.067122 0.00909055,0.0247165 0.0130984,0.0510787 0.0120787,0.077378 -0.00185039,0.0478268 -0.0192047,0.0753346 -0.0375157,0.104358l-0.00712598 0.0112953 -0.643232 1.11673 -0.02 0.025 -2.40045 2.222c-0.040874,0.0378346 -0.0932008,0.0555315 -0.144484,0.0535551 -0.0517126,-0.00199213 -0.102795,-0.0236969 -0.140669,-0.0646063l-1.67195 -1.80623c-0.0189449,-0.0204685 -0.0327559,-0.0433189 -0.0415079,-0.0671102 -0.00908268,-0.0246969 -0.0130945,-0.0510512 -0.0120827,-0.0773661 0.00101181,-0.0263543 0.00711417,-0.0525315 0.0182441,-0.076815 0.0106969,-0.0233583 0.0261811,-0.0451535 0.0463976,-0.0638622l2.40045 -2.222 0.026248 -0.0183346 1.16299 -0.555228c0.0350984,-0.0167598 0.0739882,-0.0291693 0.114898,-0.0303661 0.0525236,-0.00154724 0.102354,0.014752 0.144008,0.0597559zm0.992819 1.38506l-0.000610236 -0.000653543c0.000240157,0.000511811 0.000440945,0.000799213 0.000610236,0.000653543zm-0.00451181 -0.00487008l-1.13464 -1.22576c-0.00574803,0.00180315 -0.0130157,0.00491339 -0.0209055,0.0086811l-1.14969 0.548878 -2.37977 2.20286 1.65768 1.79081 2.38077 -2.20378 0.635228 -1.10283c0.00595276,-0.0103268 0.00864567,-0.0145945 0.0112913,-0.0187913l3.93701e-005 -5.90551e-005z"/>
   <path id="_554262136" class="fil0" d="M4.89144 2.01696l7.87402e-006 7.87402e-006 0.0025 0.00333465c0.0678425,0.0732953 0.0995669,0.166882 0.0960197,0.258921 -0.00352362,0.0911929 -0.0413819,0.181098 -0.112756,0.248665l0.000322835 0.000322835 -7.87402e-006 7.87402e-006 -0.00333465 0.0025c-0.0732992,0.0678465 -0.166886,0.0995787 -0.258929,0.0960236 -0.0924764,-0.00357087 -0.183622,-0.0424449 -0.251496,-0.115772 -0.0678465,-0.0732992 -0.0995787,-0.16689 -0.0960236,-0.258929 0.00357087,-0.0924764 0.0424488,-0.183626 0.115772,-0.251496 0.0732992,-0.0678465 0.16689,-0.0995787 0.258929,-0.0960236 0.0912008,0.00351969 0.181106,0.0413819 0.248673,0.11276l0.000322835 -0.000322835zm-0.150563 0.150579l-0.00026378 0.00026378 -7.87402e-006 -7.87402e-006 -0.0025 -0.00333465c-0.0278031,-0.0300354 -0.0652047,-0.0459724 -0.103165,-0.0474331 -0.0383976,-0.00148031 -0.0771929,0.0115236 -0.10726,0.0393543 -0.0300354,0.0278031 -0.0459685,0.0652008 -0.0474331,0.103165 -0.00148031,0.0383976 0.0115197,0.077189 0.0393543,0.10726 0.0278031,0.0300354 0.0652008,0.0459685 0.103165,0.0474331 0.0371024,0.00142913 0.0745709,-0.0106575 0.104189,-0.0365906l-0.00026378 -0.00026378 7.87402e-006 -7.87402e-006 0.00333465 -0.0025c0.0300315,-0.0278031 0.0459646,-0.0651969 0.0474291,-0.103157 0.00142913,-0.0370984 -0.0106575,-0.0745709 -0.0365866,-0.104181z"/>
   <path id="_554262088" class="fil0" d="M3.10228 2.78823c0.258496,0 0.492535,0.104787 0.661949,0.274205 0.169409,0.169409 0.274201,0.403453 0.274201,0.661949 0,0.258496 -0.104791,0.492539 -0.274201,0.661949 -0.169409,0.169409 -0.403457,0.274201 -0.661949,0.274201 -0.258496,0 -0.492539,-0.104791 -0.661949,-0.274201 -0.169417,-0.169413 -0.274205,-0.403453 -0.274205,-0.661949 0,-0.258496 0.104787,-0.492535 0.274201,-0.661953 0.169417,-0.169413 0.403457,-0.274201 0.661953,-0.274201zm0.511114 0.425039c-0.130791,-0.130795 -0.3115,-0.211701 -0.511114,-0.211701 -0.19961,0 -0.380319,0.0809016 -0.511118,0.211697 -0.130791,0.130795 -0.211697,0.311508 -0.211697,0.511118 0,0.19961 0.0809016,0.380319 0.211701,0.511114 0.130791,0.130791 0.311504,0.211697 0.511114,0.211697 0.199606,0 0.380323,-0.0809055 0.511114,-0.211697 0.130791,-0.130791 0.211697,-0.311504 0.211697,-0.511114 0,-0.19961 -0.0809055,-0.380323 -0.211697,-0.511114z"/>
   <polygon id="_554261752" class="fil0" points="2.58385,3.61772 3.62071,3.61772 3.62071,3.83106 2.58385,3.83106 "/>
  </g>
 </g>
 <rect class="fil1" width="6.82666" height="6.82666"/>
</svg>
