<?xml version="1.0" encoding="UTF-8"?>
<!DOCTYPE svg PUBLIC "-//W3C//DTD SVG 1.1//EN" "http://www.w3.org/Graphics/SVG/1.1/DTD/svg11.dtd">
<!-- Creator: CorelDRAW -->
<svg xmlns="http://www.w3.org/2000/svg" xml:space="preserve" width="6.82666in" height="6.82666in" style="shape-rendering:geometricPrecision; text-rendering:geometricPrecision; image-rendering:optimizeQuality; fill-rule:evenodd; clip-rule:evenodd"
viewBox="0 0 6.82666 6.82666"
 xmlns:xlink="http://www.w3.org/1999/xlink">
 <defs>
  <style type="text/css">
   <![CDATA[
    .fil0 {fill:none}
    .fil1 {fill:#212121;fill-rule:nonzero}
    .fil2 {fill:#66BB6A;fill-rule:nonzero}
   ]]>
  </style>
 </defs>
 <g id="Layer_x0020_1">
  <metadata id="CorelCorpID_0Corel-Layer"/>
  <g id="_394178368">
   <rect id="_394178584" class="fil0" width="6.82666" height="6.82666"/>
   <rect id="_394178224" class="fil0" x="0.853331" y="0.853331" width="5.12" height="5.12"/>
  </g>
  <path class="fil1" d="M1.69193 2.83575l0.585571 -1.34117 0.0937717 0.0407283 -0.0939803 -0.0410354c0.0201575,-0.0461654 0.0702126,-0.0700197 0.117555,-0.0587795l0.204614 0.0313976 0.000574803 0.00462598c0.00814961,0.066815 0.0123425,0.13526 0.013374,0.204382l-0.179909 -0.0276063 -0.537106 1.23016 1.57135 2.853 1.86388 -1.02657 -1.57134 -2.853 -0.892083 -0.136894c0.000106299,-0.0693425 -0.00234646,-0.139264 -0.00820079,-0.208122l0.981449 0.150602 4.72441e-005 -0.000307087c0.0327165,0.00501969 0.0594291,0.0249882 0.0742717,0.0518898l3.93701e-006 0 1.64499 2.98671c0.0273228,0.0496063 0.00925197,0.11198 -0.0403543,0.139303l-2.04354 1.12552c-0.0496102,0.0273228 -0.11198,0.00925197 -0.139303,-0.0403543l-1.64499 -2.98671c-0.0173622,-0.0315315 -0.0163819,-0.0682087 -0.000637795,-0.0977756z"/>
  <path class="fil1" d="M2.57728 1.90934c0.0209016,-0.0115118 0.0426969,-0.0198189 0.0648307,-0.0251024 -0.00311024,0.0377677 -0.00685433,0.075378 -0.0111142,0.112681 -0.00142126,0.000728346 -0.00283465,0.00147638 -0.00424016,0.00225197 -0.0377362,0.0207835 -0.0634764,0.0548937 -0.0745827,0.0932283 -0.0111063,0.0383346 -0.00758268,0.0809252 0.0132008,0.118657 0.0207835,0.0377362 0.0548898,0.0634724 0.0932244,0.0745787 0.0383386,0.0111063 0.0809252,0.00758268 0.118661,-0.0132008 0.0377323,-0.0207835 0.0634724,-0.0548937 0.0745787,-0.0932283 0.0111024,-0.0383346 0.00757874,-0.0809213 -0.0132008,-0.118657 -0.00233465,-0.00423228 -0.00483465,-0.00831496 -0.00749213,-0.012248 0.00510236,-0.0424567 0.00957874,-0.0852874 0.0132874,-0.128319 0.0339252,0.0223465 0.0630709,0.0530394 0.0840315,0.0910945 0.034437,0.0625276 0.0402717,0.133114 0.0218622,0.196661 -0.0184094,0.0635472 -0.061063,0.120087 -0.123591,0.154524 -0.0625354,0.0344409 -0.133118,0.0402717 -0.196665,0.0218661 -0.0635512,-0.0184094 -0.120087,-0.061063 -0.154528,-0.123598 -0.034437,-0.0625276 -0.0402717,-0.13311 -0.0218622,-0.196661 0.0184134,-0.0635551 0.0610709,-0.120087 0.123598,-0.154528z"/>
  <path class="fil1" d="M2.14209 1.35427c0.00583465,-0.124539 0.0363465,-0.223524 0.0808976,-0.292969 0.0422205,-0.0658189 0.0961024,-0.102484 0.150717,-0.105457 0.0545433,-0.00296457 0.113063,0.0276693 0.164996,0.0964134 0.126441,0.167366 0.204965,0.537531 0.109449,1.16528 -0.0041811,0.027937 0.0150787,0.0539843 0.0430157,0.0581693 0.027937,0.0041811 0.0539843,-0.0150787 0.0581693,-0.0430157 0.100295,-0.659154 0.011315,-1.05648 -0.128819,-1.24196 -0.0742953,-0.0983425 -0.164252,-0.141823 -0.252311,-0.137039 -0.0879961,0.00478346 -0.170882,0.0577323 -0.231508,0.15224 -0.0515748,0.0803937 -0.0875315,0.193063 -0.0956535,0.332831l0.101047 0.0155079z"/>
  <path class="fil2" d="M1.26526 2.83575l0.585571 -1.34117 0.0937717 0.0407283 -0.0939803 -0.0410354c0.0201575,-0.0461654 0.0702126,-0.0700197 0.117555,-0.0587795l0.204614 0.0313976 0.000574803 0.00462598c0.00814961,0.066815 0.0123425,0.13526 0.013374,0.204382l-0.179909 -0.0276063 -0.537106 1.23016 1.57135 2.853c0.0245709,-0.0135315 0.0614016,-0.0653346 0.073248,-0.040311l0.0878701 0.185606c0.0244213,0.0515787 -0.100622,0.0555394 -0.151996,0.0838386 -0.0496102,0.0273228 -0.11198,0.00925197 -0.139303,-0.0403543l-1.64499 -2.98671c-0.0173622,-0.0315315 -0.0163819,-0.0682087 -0.000637795,-0.0977756z"/>
  <path class="fil1" d="M1.72174 1.52289c-0.0234685,-0.205587 0.0114724,-0.36322 0.0745748,-0.461587 0.0422205,-0.0658189 0.0961024,-0.102484 0.150717,-0.105457 0.0545433,-0.00296457 0.113063,0.0276693 0.164996,0.0964134l0.081815 -0.0615276c-0.0742953,-0.0983425 -0.164252,-0.141823 -0.252311,-0.137039 -0.0879961,0.00478346 -0.170882,0.0577323 -0.231508,0.15224 -0.0899488,0.140217 -0.132449,0.378543 -0.0625039,0.687736l0.0629567 -0.144193 -0.000291339 -0.000125984 0.0115551 -0.0264606z"/>
 </g>
</svg>
